PathFileType	4	(X/Y/Z)	10_1_6_p0_0-415_filt_butterworth.trc
DataRate	CameraRate	NumFrames	NumMarkers	Units	OrigDataRate	OrigDataStartFrame	OrigNumFrames
59.0	59.0	7	27	m	59.0	311	415
Frame#	Time	RHip			RKnee			RAnkle			RBigToe			RSmallToe			RHeel			LHip			LKnee			LAnkle			LBigToe			LSmallToe			LHeel			Neck			Head			Nose			RShoulder			RElbow			RWrist			RThumb			RIndex			RPinky			LShoulder			LElbow			LWrist			LThumb			LIndex			LPinky			
		X1	Y1	Z1	X2	Y2	Z2	X3	Y3	Z3	X4	Y4	Z4	X5	Y5	Z5	X6	Y6	Z6	X7	Y7	Z7	X8	Y8	Z8	X9	Y9	Z9	X10	Y10	Z10	X11	Y11	Z11	X12	Y12	Z12	X13	Y13	Z13	X14	Y14	Z14	X15	Y15	Z15	X16	Y16	Z16	X17	Y17	Z17	X18	Y18	Z18	X19	Y19	Z19	X20	Y20	Z20	X21	Y21	Z21	X22	Y22	Z22	X23	Y23	Z23	X24	Y24	Z24	X25	Y25	Z25	X26	Y26	Z26	X27	Y27	Z27	
311	5.271186440677966	0.3221737413475545	0.4783124299993768	0.965909624678905	0.2725166216853341	0.5427691948464823	1.3997289012064704	0.30506340179202407	0.7794170919724364	1.8212892419018512	0.27340817292866415	0.5806066405126238	1.842056117704289	0.32363389175127694	0.608591583750089	1.8364250474423818	0.2742483072271782	0.8912726456926566	1.8932889289507424	0.07736180820650586	0.5181670399395479	0.9861817368639747	0.0865646758542723	0.5800365774189122	1.4137219859977277	0.09121577947624	0.7489265643817	1.8071072876321255	0.12619145351445718	0.5577385800379013	1.8296852628933205	0.0680430428424763	0.6087822396268365	1.8278033737886992	0.089620309358086	0.8848810125728086	1.8799370207024642	0.17397962233370157	0.409636661887985	0.37764840559671037	0.19131502835284903	0.3623823924539624	0.1018529890527294	0.20125235575519998	0.31786334037355624	0.2348355565582208	0.330373356041186	0.36519112689770594	0.43308872732443576	0.5631544513930394	0.2077011239417188	0.36743931150340475	0.3917511242567785	0.1286407627051564	0.2760113523990512	0.2394240725394186	0.13482442632168792	0.2976190999365153	0.25121831647329756	0.1672777162169263	0.27178284362240696	0.2938075254852501	0.09477356758018046	0.2679632653584151	0.028824779980250122	0.3503306256053051	0.4553302655086584	-0.13667486249018834	0.13390952794854152	0.3793029598595694	0.03906110929979825	0.13188525919848926	0.2749483250640836	0.14880099281379244	0.1669272709999431	0.2952692483110345	0.1730160620111359	0.1984893232591881	0.2632151782563584	0.14434957759837258	0.09213630081214272	0.24929597535105388
312	5.288135593220339	0.325466125193328	0.4764825749425228	0.9561409683556057	0.2738266819926526	0.5463914066265138	1.3904614958156551	0.3105939087085507	0.7701732388547553	1.81271304255434	0.276262090176649	0.5919312826274012	1.8454915642658136	0.3261251010237337	0.6150225798499893	1.8387781371684506	0.2787912743748485	0.8899047282951595	1.8872463219533593	0.07767127279742737	0.5143743066440141	0.9740706375022679	0.08609548060826559	0.594227243674236	1.408134954300896	0.0889374021670908	0.7502918210334315	1.8003520922303133	0.12658451553950778	0.5782649012054333	1.8369039781243504	0.06519567544132776	0.6168080739611775	1.830889468781307	0.09172271927754294	0.8761294345809176	1.8669855594048064	0.17514148855698367	0.40156996624795244	0.3555687236820891	0.19465799895118807	0.3496603924465684	0.1069499754882326	0.2026457332215301	0.3132235966618131	0.2301412840279659	0.32886331711667194	0.3593530586225827	0.4228352252184884	0.5553225842889695	0.1914446815318359	0.3493512036558067	0.3874546445880003	0.1153581795007521	0.24362667779209207	0.23876723376330405	0.10870067323741725	0.25527501954811	0.24702159317069622	0.1613293346637509	0.2297086106877116	0.2773630235091565	0.07311509900849762	0.2148942680731611	0.026221923547235355	0.3500173129085768	0.44305444206721645	-0.13252167101868043	0.1262295374852949	0.36007370738885	0.03703624931023195	0.11114758125794	0.24002922136590138	0.14648637441980422	0.1405938917830403	0.2564061355674007	0.17306616161186716	0.1739050546725468	0.2252332259067665	0.1413762829855605	0.08780004923356813	0.20833434449045835
313	5.305084745762712	0.32742319478850757	0.47668209223082025	0.946047053926324	0.27744338561936804	0.554677827581726	1.3850156013087933	0.31569706232629646	0.764662677942441	1.8064581555365264	0.27768872727845406	0.5998567125061695	1.847835075581127	0.3282753398852161	0.620618982282257	1.8422254951714838	0.28520050361642657	0.8884978355537541	1.8831872669049001	0.07785740984036389	0.5095214351976792	0.9616689414264887	0.08632410432156615	0.6010699396005642	1.401425100892319	0.08602544231586995	0.7540069571837509	1.7962031773279077	0.12698207745636142	0.5947839942165957	1.8431351880646796	0.0634055081481315	0.6213677792739298	1.833405078617504	0.09293683274771478	0.8695833530059598	1.8575973285024379	0.17631177753487343	0.3882966676322947	0.33489581725727285	0.19892840141954365	0.33387938157872554	0.10932469471989062	0.20457536562720563	0.30556631639779064	0.22109708261724748	0.3281601529387012	0.35464187859479007	0.410974090561509	0.5430022000733357	0.1735758725923639	0.33047437096385	0.38230847456818207	0.10064808093166722	0.2106525611749823	0.24335589242223007	0.09629078846192907	0.20539654163496254	0.24670798945937966	0.15425896315697252	0.17651599123349723	0.2721960667633233	0.06180823572574881	0.15865776048349894	0.0248952077247804	0.3457325813222507	0.4281388222499115	-0.12675605520277505	0.12533579518850088	0.340532773674858	0.03683429994898845	0.08519416836666187	0.20464503080037533	0.14914512081696363	0.10398552591246707	0.21390314501715046	0.17013530612911232	0.13414384151254158	0.18005308288133703	0.1365825427620067	0.07384664859919829	0.16192157830995244
314	5.322033898305085	0.3270943160314282	0.47609086439295983	0.9363555859051631	0.28400208446896724	0.570827225257957	1.3835908092198599	0.3194676401556772	0.762555095283179	1.8024999315604242	0.2769505583052738	0.6051036261140403	1.850626022808964	0.3295208791230302	0.6239192029003958	1.8453522809653777	0.29134740083909166	0.8873925788894496	1.8821981589698247	0.07790424098628469	0.5046506061417565	0.951317037550096	0.08667242191001291	0.6047678807174783	1.3950387247246938	0.08304529387387602	0.7587416490967664	1.7950808673832692	0.12724997579480407	0.6027230229300468	1.8469312357172638	0.06258779738351244	0.6224328582343033	1.8342374639752406	0.09224478345531732	0.8669910976373498	1.8548723438365715	0.1746704788418237	0.37636854998367125	0.32215730115414576	0.20021519208964883	0.3238589986419824	0.10414258590406969	0.2055307219438286	0.2975625594887081	0.20900522240978237	0.3268691033758069	0.3527142897238221	0.3990075387682857	0.5250890411349284	0.15840593012749915	0.312573892053151	0.37613026021581625	0.0770374294917669	0.17887749298407654	0.24929051644191802	0.08669241041408002	0.14923481833684143	0.25321145564506037	0.13096692460979525	0.11570939164910783	0.28348711232778306	0.05041843296207093	0.10270026823575076	0.025139032599111568	0.3392634215809434	0.4158785713750794	-0.11775302650447823	0.12281438371927646	0.3199970059547083	0.03651340791831663	0.05770171122239319	0.17251640859246678	0.15578497459130602	0.062456440979125054	0.16680094390780636	0.16193598010305946	0.08768893408133852	0.1288312196199409	0.12547276343122174	0.04604589665416552	0.11140879267026983
315	5.338983050847458	0.3248340845228115	0.4755485936804541	0.9279640504062536	0.29292995970908015	0.5934865699095039	1.384312412814548	0.32172622618971863	0.7619187647395163	1.7998290259413157	0.27463618855754535	0.608515553082458	1.853911143299395	0.33019987871103496	0.6259459759580297	1.8473824068452624	0.2959897298464091	0.8873393555670606	1.8832885684069984	0.07779951218561551	0.5000126812262045	0.9439578004426743	0.08686329794922483	0.6093574024031848	1.390257636130877	0.08097133438194333	0.7619003265069823	1.7955744843755708	0.12725154680487025	0.6036996368641541	1.848207399057256	0.06246019627749268	0.6215908790158668	1.8338499531014207	0.090422046816411	0.8671984326083854	1.8563446682285565	0.17082570585762571	0.3700429613153812	0.31571823215101225	0.19519409170711183	0.32397924906940967	0.0928482747207682	0.20384731354865782	0.2895198243895308	0.19783643202263193	0.3247852956710801	0.35236431024309833	0.3889909982209539	0.5024104362380867	0.14888948628140214	0.2941243287938084	0.3683546905292787	0.047292221544068425	0.1486239568004547	0.25372196556413884	0.06162621202903747	0.0977994458337744	0.26377392528825105	0.08589689081604307	0.05620497063470556	0.30368038632668176	0.025076291610162317	0.05141377653907937	0.026509106654748572	0.33417888313286254	0.40796848158587945	-0.10425222018466895	0.11345606434340819	0.29939151056059754	0.034219565857611885	0.03263308214929253	0.14530593469067157	0.16128207941298767	0.02497808877225232	0.12043928896514502	0.14802391434884163	0.04767749696010756	0.07584907872309456	0.10625883026339467	0.005549334492416612	0.06261156340237192
316	5.3559322033898304	0.3215702324370111	0.47828387308822373	0.9218141851351622	0.30239234854231	0.6167979505845871	1.385399546115111	0.3232103727316565	0.762229853367716	1.798228959170066	0.2722617994545462	0.6095975732289541	1.8560002304807757	0.3306077990652231	0.6272790694238554	1.8476256660371129	0.2995290193297733	0.8894639862018877	1.885002549492448	0.07763988259411678	0.496512768572835	0.9389013642354118	0.08693955534910368	0.6162706504032041	1.3873342964698594	0.08065617510878623	0.7626314489828757	1.7962722319514977	0.12689299903462053	0.6016600812667563	1.847835160486038	0.0627018059904309	0.6205760318176882	1.8334402042519164	0.0900022709689846	0.8687764897802484	1.857420825712254	0.16800733942207366	0.3684863777518507	0.3124871180759432	0.18545045728930803	0.3285630231725636	0.08142339973083726	0.19966682560528706	0.28007901015240283	0.1918379005485843	0.3227230334868313	0.35199672164791507	0.382194037782018	0.477331794130073	0.14400190263527704	0.2744687704140075	0.3605650773794463	0.0200824520368314	0.12068167777296873	0.2553966660182192	0.01911241496646133	0.06173063124560216	0.27399982397571193	0.025319373437162555	0.008803061943766618	0.3223090468103849	-0.01858430596671882	0.010456561925856393	0.028646747100821934	0.3321687743457614	0.4039666056730741	-0.08677811133800287	0.10112455527516631	0.2823289717204836	0.029552013903452187	0.012087412798072435	0.12339923618679129	0.159900371857132	-0.006056758356046342	0.08175077633744686	0.13046587866545356	0.01589097693934139	0.027388481803215785	0.08273118103234478	-0.039434578583854234	0.02310118585214307
317	5.372881355932203	0.31815858158328664	0.48476062857933044	0.9182095000677968	0.3103402042307444	0.6354934285527999	1.3856917584104749	0.32487211572343205	0.7644489760440798	1.7972881180786102	0.2709275410446108	0.6087744076439802	1.8555983380161147	0.33077812152844144	0.6277835205018334	1.8459949278252825	0.30260770259250547	0.8942148054428449	1.885833440989741	0.07770500026052272	0.49577916509942893	0.9350335235108096	0.08697763668939534	0.6231863007821197	1.3854171640283237	0.08238902554499893	0.7620290816903635	1.796212867302821	0.12599417978551464	0.5997063256037292	1.846717443388933	0.06291813709930069	0.6205185573027222	1.8334432369000544	0.09284117005320967	0.8709778852306752	1.8555810798199293	0.1681991424191676	0.3685723021867735	0.3113902232295452	0.176864946805159	0.32412768478184345	0.07546334737974283	0.1947019452409597	0.26755107100561343	0.19250614364386867	0.3214093698309363	0.3514003753927745	0.3787519505797792	0.45292359402590293	0.14000156757040544	0.2569050100805042	0.3555778361935254	-0.0004633887070166886	0.09726953138462094	0.25350424163619545	-0.02698654207603075	0.041615870936051874	0.28332835801543144	-0.04042959967249918	-0.019012740290398112	0.3357646353355575	-0.07252587257600822	-0.01538582909208361	0.031566163083894094	0.3322618942295231	0.40276054496649083	-0.06838596257127064	0.09626757735535209	0.27110032366738207	0.023597637454647033	-0.0037173639067693085	0.1062360579331251	0.15103766498769833	-0.03502611488817771	0.05437609315437385	0.111854595007	-0.017328433344172976	-0.008732969072773163	0.06048216025074104	-0.08009248126395359	-0.0023446326307672693
